<svg xmlns="http://www.w3.org/2000/svg" width="1000" height="390" viewBox="0 0 1000 390" data-palette="e6a856-dae76a-f6bbac-0235c8c0c05f" role="img" aria-labelledby="hero-dark-title hero-dark-desc"><title id="hero-dark-title">agentguard</title><desc id="hero-dark-desc">Inspect instructions hidden in dependency prose.</desc><defs><linearGradient id="brand" gradientUnits="userSpaceOnUse" x2="1000" y2="390"><stop stop-color="#e6a856"/><stop offset=".6" stop-color="#dae76a"/><stop offset="1" stop-color="#f6bbac"/></linearGradient><radialGradient id="halo"><stop stop-color="#e6a856" stop-opacity=".22"/><stop offset="1" stop-color="#0a0a0d" stop-opacity="0"/></radialGradient><filter id="glow"><feGaussianBlur stdDeviation="5"/></filter><pattern id="grid" width="40" height="40" patternUnits="userSpaceOnUse"><path d="M40 0H0V40" fill="none" stroke="#3a2d1d" stroke-opacity=".35" stroke-width=".6"/></pattern><marker id="arrow" viewBox="0 0 10 10" refX="8" refY="5" markerWidth="5" markerHeight="5" orient="auto"><path d="m1 1 7 4-7 4" fill="none" stroke="#e6a856" stroke-width="1.5"/></marker></defs><style>text{font-family:Arial,"Noto Sans",sans-serif}.flow{stroke-dasharray:10 110;animation:flow 6s linear infinite}.pulse{animation:pulse 5s ease-in-out infinite}.turn{transform-box:fill-box;transform-origin:center;animation:turn 36s linear infinite}@keyframes flow{to{stroke-dashoffset:-360}}@keyframes pulse{0%,100%{opacity:.45}50%{opacity:1}}@keyframes turn{to{transform:rotate(360deg)}}@media(prefers-reduced-motion:reduce){*{animation:none!important;transform:none!important}.flow{display:none}}</style><rect width="1000" height="390" rx="16" fill="#0a0a0d"/><rect width="1000" height="390" rx="16" fill="url(#grid)"/><ellipse cx="630.0" cy="167.7" rx="500.0" ry="273.0" fill="url(#halo)"/><circle cx="901.13" cy="27.52" r="0.86" fill="#dae76a" opacity="0.30"/><circle cx="628.20" cy="323.95" r="0.64" fill="#e6a856" opacity="0.54"/><circle cx="888.57" cy="372.93" r="0.88" fill="#e6a856" opacity="0.22"/><circle cx="1062.12" cy="310.05" r="1.30" fill="#dae76a" opacity="0.37"/><circle cx="1057.46" cy="160.79" r="0.94" fill="#e6a856" opacity="0.51"/><circle cx="1016.12" cy="87.31" r="1.14" fill="#e6a856" opacity="0.69"/><circle cx="1055.35" cy="297.18" r="0.85" fill="#dae76a" opacity="0.39"/><circle cx="915.28" cy="365.76" r="0.92" fill="#e6a856" opacity="0.56"/><circle cx="926.98" cy="224.01" r="1.55" fill="#e6a856" opacity="0.71"/><circle cx="904.42" cy="53.65" r="0.86" fill="#dae76a" opacity="0.36"/><circle cx="801.28" cy="24.19" r="0.63" fill="#e6a856" opacity="0.55"/><circle cx="713.95" cy="374.43" r="0.67" fill="#e6a856" opacity="0.22"/><circle cx="789.21" cy="259.90" r="1.41" fill="#dae76a" opacity="0.47"/><circle cx="1071.85" cy="269.91" r="0.66" fill="#e6a856" opacity="0.58"/><circle cx="928.11" cy="380.76" r="0.79" fill="#e6a856" opacity="0.29"/><circle cx="700.38" cy="58.93" r="1.21" fill="#dae76a" opacity="0.23"/><circle cx="924.80" cy="386.87" r="0.77" fill="#e6a856" opacity="0.48"/><circle cx="681.07" cy="50.13" r="1.24" fill="#e6a856" opacity="0.26"/><circle cx="1032.96" cy="137.43" r="0.74" fill="#dae76a" opacity="0.52"/><circle cx="760.45" cy="223.61" r="1.22" fill="#e6a856" opacity="0.73"/><circle cx="616.64" cy="268.72" r="0.89" fill="#e6a856" opacity="0.78"/><circle cx="1042.32" cy="164.55" r="0.97" fill="#dae76a" opacity="0.54"/><circle cx="947.85" cy="398.97" r="0.76" fill="#e6a856" opacity="0.50"/><circle cx="1005.29" cy="75.43" r="1.47" fill="#e6a856" opacity="0.40"/><circle cx="760.34" cy="295.37" r="0.66" fill="#dae76a" opacity="0.53"/><circle cx="923.40" cy="286.39" r="0.86" fill="#e6a856" opacity="0.28"/><circle cx="875.36" cy="217.35" r="1.45" fill="#e6a856" opacity="0.34"/><circle cx="640.79" cy="296.31" r="0.86" fill="#dae76a" opacity="0.53"/><circle cx="855.21" cy="16.74" r="1.49" fill="#e6a856" opacity="0.80"/><circle cx="647.76" cy="78.13" r="1.06" fill="#e6a856" opacity="0.51"/><circle cx="717.18" cy="361.30" r="1.59" fill="#dae76a" opacity="0.50"/><circle cx="568.51" cy="259.31" r="0.89" fill="#e6a856" opacity="0.37"/><circle cx="859.69" cy="108.08" r="1.14" fill="#e6a856" opacity="0.35"/><circle cx="814.80" cy="67.69" r="1.42" fill="#dae76a" opacity="0.71"/><circle cx="638.12" cy="245.71" r="0.76" fill="#e6a856" opacity="0.65"/><circle cx="741.82" cy="51.43" r="1.54" fill="#e6a856" opacity="0.47"/><circle cx="613.02" cy="231.82" r="1.67" fill="#dae76a" opacity="0.63"/><circle cx="646.13" cy="358.07" r="0.94" fill="#e6a856" opacity="0.43"/><circle cx="1041.71" cy="112.13" r="1.48" fill="#e6a856" opacity="0.63"/><circle cx="698.27" cy="102.57" r="1.19" fill="#dae76a" opacity="0.55"/><circle cx="847.79" cy="304.62" r="1.04" fill="#e6a856" opacity="0.67"/><circle cx="620.70" cy="353.82" r="0.83" fill="#e6a856" opacity="0.23"/><circle cx="832.93" cy="253.41" r="1.49" fill="#dae76a" opacity="0.26"/><circle cx="628.58" cy="211.73" r="0.71" fill="#e6a856" opacity="0.39"/><circle cx="1042.43" cy="249.05" r="0.84" fill="#e6a856" opacity="0.45"/><circle cx="652.52" cy="70.96" r="1.11" fill="#dae76a" opacity="0.25"/><circle cx="946.55" cy="393.76" r="1.13" fill="#e6a856" opacity="0.55"/><circle cx="1044.94" cy="117.19" r="0.94" fill="#e6a856" opacity="0.42"/><circle cx="1019.59" cy="132.43" r="1.46" fill="#dae76a" opacity="0.28"/><circle cx="888.55" cy="194.27" r="0.91" fill="#e6a856" opacity="0.36"/><circle cx="918.09" cy="101.34" r="1.06" fill="#e6a856" opacity="0.62"/><circle cx="675.67" cy="392.60" r="1.35" fill="#dae76a" opacity="0.57"/><circle cx="686.69" cy="160.50" r="0.78" fill="#e6a856" opacity="0.48"/><circle cx="657.68" cy="351.12" r="1.47" fill="#e6a856" opacity="0.46"/><circle cx="823.29" cy="408.32" r="1.52" fill="#dae76a" opacity="0.50"/><circle cx="854.61" cy="299.17" r="1.68" fill="#e6a856" opacity="0.32"/><circle cx="830.57" cy="363.04" r="1.33" fill="#e6a856" opacity="0.23"/><circle cx="1000.65" cy="257.70" r="1.06" fill="#dae76a" opacity="0.80"/><circle cx="836.98" cy="15.48" r="0.76" fill="#e6a856" opacity="0.58"/><circle cx="740.27" cy="219.67" r="1.58" fill="#e6a856" opacity="0.65"/><circle cx="598.70" cy="295.80" r="1.30" fill="#dae76a" opacity="0.24"/><circle cx="866.64" cy="148.71" r="1.61" fill="#e6a856" opacity="0.33"/><circle cx="999.85" cy="329.58" r="1.50" fill="#e6a856" opacity="0.48"/><circle cx="866.71" cy="37.77" r="0.74" fill="#dae76a" opacity="0.37"/><circle cx="947.01" cy="73.44" r="1.16" fill="#e6a856" opacity="0.44"/><circle cx="904.12" cy="271.54" r="0.97" fill="#e6a856" opacity="0.73"/><circle cx="772.39" cy="84.42" r="1.04" fill="#dae76a" opacity="0.23"/><circle cx="995.05" cy="66.15" r="0.83" fill="#e6a856" opacity="0.79"/><circle cx="934.31" cy="130.28" r="0.79" fill="#e6a856" opacity="0.49"/><circle cx="708.29" cy="38.86" r="0.63" fill="#dae76a" opacity="0.64"/><circle cx="772.48" cy="96.45" r="1.09" fill="#e6a856" opacity="0.50"/><circle cx="928.84" cy="265.69" r="0.67" fill="#e6a856" opacity="0.73"/><circle cx="862.11" cy="240.33" r="1.44" fill="#dae76a" opacity="0.57"/><circle cx="675.98" cy="337.50" r="1.30" fill="#e6a856" opacity="0.67"/><circle cx="902.14" cy="418.04" r="1.21" fill="#e6a856" opacity="0.54"/><circle cx="604.03" cy="279.00" r="1.04" fill="#dae76a" opacity="0.21"/><circle cx="1020.00" cy="296.91" r="1.42" fill="#e6a856" opacity="0.32"/><circle cx="674.80" cy="155.83" r="1.39" fill="#e6a856" opacity="0.32"/><circle cx="1067.97" cy="254.82" r="1.62" fill="#dae76a" opacity="0.28"/><circle cx="780.15" cy="18.19" r="0.97" fill="#e6a856" opacity="0.32"/><circle cx="686.29" cy="401.50" r="1.24" fill="#e6a856" opacity="0.40"/><circle cx="724.95" cy="59.73" r="1.50" fill="#dae76a" opacity="0.25"/><circle cx="706.56" cy="330.46" r="1.63" fill="#e6a856" opacity="0.56"/><circle cx="775.90" cy="71.70" r="1.51" fill="#e6a856" opacity="0.32"/><circle cx="581.22" cy="232.99" r="0.97" fill="#dae76a" opacity="0.51"/><circle cx="761.68" cy="178.54" r="0.75" fill="#e6a856" opacity="0.48"/><circle cx="848.77" cy="17.26" r="0.97" fill="#e6a856" opacity="0.53"/><circle cx="1031.26" cy="330.68" r="0.69" fill="#dae76a" opacity="0.72"/><circle cx="982.50" cy="271.32" r="1.24" fill="#e6a856" opacity="0.71"/><circle cx="778.86" cy="20.06" r="0.92" fill="#e6a856" opacity="0.57"/><circle cx="796.14" cy="305.21" r="1.68" fill="#dae76a" opacity="0.39"/><circle cx="977.83" cy="208.20" r="1.21" fill="#e6a856" opacity="0.78"/><circle cx="590.89" cy="134.40" r="1.27" fill="#e6a856" opacity="0.58"/><circle cx="996.98" cy="115.17" r="0.81" fill="#dae76a" opacity="0.29"/><circle cx="682.70" cy="132.62" r="1.58" fill="#e6a856" opacity="0.69"/><circle cx="980.89" cy="374.76" r="1.57" fill="#e6a856" opacity="0.66"/><circle cx="1037.53" cy="121.87" r="0.98" fill="#dae76a" opacity="0.41"/><circle cx="657.05" cy="141.94" r="0.66" fill="#e6a856" opacity="0.43"/><circle cx="744.87" cy="61.72" r="1.00" fill="#e6a856" opacity="0.26"/><circle cx="916.68" cy="421.46" r="1.20" fill="#dae76a" opacity="0.63"/><circle cx="921.52" cy="263.26" r="1.13" fill="#e6a856" opacity="0.36"/><circle cx="769.87" cy="222.44" r="0.90" fill="#e6a856" opacity="0.65"/><circle cx="991.50" cy="119.03" r="1.51" fill="#dae76a" opacity="0.65"/><circle cx="818.13" cy="17.49" r="0.82" fill="#e6a856" opacity="0.77"/><circle cx="902.73" cy="79.64" r="1.37" fill="#e6a856" opacity="0.60"/><circle cx="896.49" cy="26.50" r="1.41" fill="#dae76a" opacity="0.35"/><circle cx="931.05" cy="66.99" r="0.71" fill="#e6a856" opacity="0.63"/><circle cx="607.55" cy="338.74" r="1.30" fill="#e6a856" opacity="0.75"/><circle cx="707.93" cy="46.03" r="1.07" fill="#dae76a" opacity="0.42"/><circle cx="709.69" cy="313.95" r="1.06" fill="#e6a856" opacity="0.80"/><circle cx="582.13" cy="291.25" r="0.73" fill="#e6a856" opacity="0.73"/><circle cx="691.66" cy="401.44" r="1.39" fill="#dae76a" opacity="0.53"/><circle cx="914.28" cy="159.06" r="1.37" fill="#e6a856" opacity="0.45"/><circle cx="713.33" cy="414.12" r="1.23" fill="#e6a856" opacity="0.49"/><circle cx="1014.37" cy="129.24" r="0.68" fill="#dae76a" opacity="0.49"/><circle cx="986.16" cy="385.98" r="1.49" fill="#e6a856" opacity="0.31"/><circle cx="707.77" cy="248.87" r="1.12" fill="#e6a856" opacity="0.76"/><circle cx="824.89" cy="341.42" r="1.03" fill="#dae76a" opacity="0.76"/><circle cx="668.00" cy="353.90" r="1.02" fill="#e6a856" opacity="0.71"/><circle cx="966.67" cy="287.41" r="0.75" fill="#e6a856" opacity="0.34"/><circle cx="715.38" cy="35.80" r="1.37" fill="#dae76a" opacity="0.38"/><circle cx="798.10" cy="144.48" r="1.27" fill="#e6a856" opacity="0.34"/><circle cx="681.56" cy="374.55" r="1.18" fill="#e6a856" opacity="0.50"/><circle cx="855.25" cy="231.85" r="1.43" fill="#dae76a" opacity="0.62"/><circle cx="1022.13" cy="91.13" r="1.33" fill="#e6a856" opacity="0.35"/><circle cx="587.40" cy="236.57" r="0.93" fill="#e6a856" opacity="0.49"/><circle cx="642.18" cy="287.71" r="0.80" fill="#dae76a" opacity="0.68"/><circle cx="698.69" cy="156.31" r="1.30" fill="#e6a856" opacity="0.64"/><circle cx="692.44" cy="119.42" r="1.11" fill="#e6a856" opacity="0.29"/><circle cx="726.05" cy="35.85" r="1.68" fill="#dae76a" opacity="0.73"/><circle cx="647.47" cy="254.61" r="1.13" fill="#e6a856" opacity="0.67"/><circle cx="669.73" cy="312.42" r="0.78" fill="#e6a856" opacity="0.66"/><circle cx="1028.70" cy="328.74" r="1.64" fill="#dae76a" opacity="0.35"/><circle cx="628.70" cy="105.26" r="0.71" fill="#e6a856" opacity="0.51"/><circle cx="838.38" cy="249.45" r="1.43" fill="#e6a856" opacity="0.26"/><circle cx="603.89" cy="274.22" r="1.24" fill="#dae76a" opacity="0.34"/><circle cx="889.63" cy="320.11" r="1.53" fill="#e6a856" opacity="0.47"/><circle cx="944.59" cy="242.36" r="0.95" fill="#e6a856" opacity="0.56"/><circle cx="1026.85" cy="310.80" r="1.32" fill="#dae76a" opacity="0.59"/><circle cx="910.71" cy="132.39" r="0.79" fill="#e6a856" opacity="0.65"/><circle cx="972.83" cy="53.74" r="1.52" fill="#e6a856" opacity="0.27"/><circle cx="1084.18" cy="233.52" r="1.25" fill="#dae76a" opacity="0.27"/><circle cx="739.56" cy="54.82" r="1.52" fill="#e6a856" opacity="0.58"/><circle cx="739.94" cy="412.44" r="1.03" fill="#e6a856" opacity="0.47"/><circle cx="899.82" cy="41.12" r="1.62" fill="#dae76a" opacity="0.57"/><circle cx="932.91" cy="216.31" r="1.60" fill="#e6a856" opacity="0.55"/><circle cx="1077.25" cy="212.97" r="1.08" fill="#e6a856" opacity="0.44"/><circle cx="958.00" cy="49.70" r="1.53" fill="#dae76a" opacity="0.53"/><circle cx="888.38" cy="41.86" r="0.67" fill="#e6a856" opacity="0.38"/><circle cx="1080.99" cy="188.53" r="1.23" fill="#e6a856" opacity="0.46"/><circle cx="585.56" cy="210.90" r="0.77" fill="#dae76a" opacity="0.76"/><circle cx="680.09" cy="161.88" r="1.60" fill="#e6a856" opacity="0.71"/><circle cx="931.62" cy="402.87" r="0.98" fill="#e6a856" opacity="0.31"/><circle cx="827.18" cy="313.29" r="0.76" fill="#dae76a" opacity="0.79"/><circle cx="890.76" cy="372.79" r="1.58" fill="#e6a856" opacity="0.50"/><circle cx="792.86" cy="224.42" r="1.15" fill="#e6a856" opacity="0.66"/><circle cx="897.35" cy="404.95" r="1.67" fill="#dae76a" opacity="0.51"/><circle cx="684.41" cy="51.56" r="1.33" fill="#e6a856" opacity="0.68"/><circle cx="734.64" cy="191.91" r="0.93" fill="#e6a856" opacity="0.32"/><circle cx="578.08" cy="230.25" r="1.11" fill="#dae76a" opacity="0.26"/><circle cx="751.34" cy="367.91" r="1.45" fill="#e6a856" opacity="0.69"/><circle cx="597.83" cy="204.60" r="0.66" fill="#e6a856" opacity="0.40"/><circle cx="897.35" cy="48.86" r="0.88" fill="#dae76a" opacity="0.74"/><circle cx="665.76" cy="387.93" r="0.85" fill="#e6a856" opacity="0.45"/><circle cx="950.34" cy="99.06" r="0.92" fill="#e6a856" opacity="0.24"/><circle cx="786.94" cy="390.09" r="1.40" fill="#dae76a" opacity="0.62"/><circle cx="856.34" cy="26.52" r="0.89" fill="#e6a856" opacity="0.45"/><circle cx="921.96" cy="38.93" r="1.09" fill="#e6a856" opacity="0.69"/><circle cx="735.23" cy="310.39" r="0.86" fill="#dae76a" opacity="0.52"/><circle cx="746.93" cy="24.74" r="1.40" fill="#e6a856" opacity="0.41"/><circle cx="890.63" cy="153.70" r="0.66" fill="#e6a856" opacity="0.35"/><circle cx="628.54" cy="265.11" r="1.27" fill="#dae76a" opacity="0.34"/><circle cx="984.76" cy="282.57" r="0.71" fill="#e6a856" opacity="0.66"/><circle cx="1063.28" cy="238.48" r="0.65" fill="#e6a856" opacity="0.50"/><circle cx="982.23" cy="392.20" r="0.67" fill="#dae76a" opacity="0.37"/><circle cx="623.92" cy="207.47" r="0.98" fill="#e6a856" opacity="0.21"/><circle cx="1069.20" cy="284.25" r="0.67" fill="#e6a856" opacity="0.47"/><circle cx="627.36" cy="342.08" r="1.31" fill="#dae76a" opacity="0.41"/><circle cx="772.25" cy="30.37" r="1.60" fill="#e6a856" opacity="0.36"/><circle cx="899.07" cy="411.50" r="1.25" fill="#e6a856" opacity="0.43"/><circle cx="708.02" cy="293.02" r="0.63" fill="#dae76a" opacity="0.77"/><circle cx="625.63" cy="99.32" r="1.14" fill="#e6a856" opacity="0.29"/><circle cx="793.99" cy="221.32" r="1.29" fill="#e6a856" opacity="0.48"/><circle cx="950.52" cy="343.44" r="0.75" fill="#dae76a" opacity="0.36"/><circle cx="1064.73" cy="143.70" r="1.29" fill="#e6a856" opacity="0.59"/><circle cx="696.61" cy="390.23" r="1.40" fill="#e6a856" opacity="0.42"/><circle cx="701.98" cy="181.91" r="1.63" fill="#dae76a" opacity="0.78"/><circle cx="782.28" cy="21.06" r="0.96" fill="#e6a856" opacity="0.21"/><circle cx="934.05" cy="401.33" r="1.48" fill="#e6a856" opacity="0.42"/><circle cx="1054.73" cy="260.56" r="0.95" fill="#dae76a" opacity="0.73"/><circle cx="680.03" cy="206.39" r="1.27" fill="#e6a856" opacity="0.46"/><circle cx="718.59" cy="88.35" r="1.27" fill="#e6a856" opacity="0.40"/><circle cx="656.60" cy="384.27" r="1.55" fill="#dae76a" opacity="0.74"/><circle cx="690.28" cy="47.34" r="1.00" fill="#e6a856" opacity="0.69"/><circle cx="908.24" cy="211.18" r="1.25" fill="#e6a856" opacity="0.31"/><circle cx="715.97" cy="180.79" r="1.62" fill="#dae76a" opacity="0.71"/><circle cx="723.49" cy="103.32" r="1.55" fill="#e6a856" opacity="0.76"/><circle cx="807.78" cy="109.88" r="0.97" fill="#e6a856" opacity="0.59"/><circle cx="1067.55" cy="260.01" r="0.71" fill="#dae76a" opacity="0.52"/><circle cx="752.16" cy="333.13" r="0.94" fill="#e6a856" opacity="0.50"/><circle cx="1047.13" cy="117.09" r="1.40" fill="#e6a856" opacity="0.48"/><circle cx="668.74" cy="392.22" r="0.96" fill="#dae76a" opacity="0.31"/><circle cx="853.37" cy="200.40" r="0.70" fill="#e6a856" opacity="0.27"/><circle cx="570.07" cy="262.22" r="1.65" fill="#e6a856" opacity="0.49"/><circle cx="796.59" cy="48.77" r="1.14" fill="#dae76a" opacity="0.66"/><circle cx="721.40" cy="272.82" r="1.51" fill="#e6a856" opacity="0.72"/><circle cx="1022.26" cy="287.52" r="1.14" fill="#e6a856" opacity="0.25"/><circle cx="800.45" cy="280.59" r="1.33" fill="#dae76a" opacity="0.44"/><circle cx="787.11" cy="339.14" r="0.76" fill="#e6a856" opacity="0.35"/><circle cx="850.11" cy="209.09" r="0.83" fill="#e6a856" opacity="0.75"/><circle cx="1008.17" cy="357.62" r="1.62" fill="#dae76a" opacity="0.26"/><circle cx="608.99" cy="272.98" r="1.34" fill="#e6a856" opacity="0.78"/><circle cx="1039.57" cy="334.44" r="0.64" fill="#e6a856" opacity="0.69"/><circle cx="665.98" cy="116.18" r="1.31" fill="#dae76a" opacity="0.55"/><circle cx="769.81" cy="284.52" r="0.83" fill="#e6a856" opacity="0.39"/><circle cx="1041.34" cy="340.94" r="1.38" fill="#e6a856" opacity="0.72"/><circle cx="993.17" cy="363.12" r="1.24" fill="#dae76a" opacity="0.78"/><circle cx="694.59" cy="387.97" r="1.12" fill="#e6a856" opacity="0.67"/><circle cx="1007.37" cy="325.30" r="1.19" fill="#e6a856" opacity="0.53"/><circle cx="583.37" cy="272.12" r="1.01" fill="#dae76a" opacity="0.42"/><circle cx="1057.01" cy="132.21" r="0.79" fill="#e6a856" opacity="0.47"/><circle cx="601.36" cy="330.66" r="1.18" fill="#e6a856" opacity="0.55"/><circle cx="889.89" cy="301.27" r="1.14" fill="#dae76a" opacity="0.51"/><circle cx="893.56" cy="22.53" r="0.71" fill="#e6a856" opacity="0.73"/><circle cx="1014.21" cy="321.10" r="1.42" fill="#e6a856" opacity="0.75"/><circle cx="1066.84" cy="296.13" r="0.99" fill="#dae76a" opacity="0.64"/><circle cx="873.71" cy="316.91" r="0.73" fill="#e6a856" opacity="0.59"/><circle cx="577.67" cy="279.22" r="1.09" fill="#e6a856" opacity="0.41"/><circle cx="657.13" cy="223.11" r="1.43" fill="#dae76a" opacity="0.77"/><circle cx="835.57" cy="395.84" r="1.51" fill="#e6a856" opacity="0.78"/><circle cx="668.43" cy="309.70" r="1.12" fill="#e6a856" opacity="0.63"/><circle cx="841.91" cy="130.05" r="1.66" fill="#dae76a" opacity="0.77"/><circle cx="1028.29" cy="289.22" r="0.81" fill="#e6a856" opacity="0.35"/><circle cx="929.48" cy="265.34" r="0.81" fill="#e6a856" opacity="0.27"/><circle cx="699.81" cy="46.46" r="0.95" fill="#dae76a" opacity="0.64"/><circle cx="721.93" cy="395.11" r="0.77" fill="#e6a856" opacity="0.47"/><circle cx="815.83" cy="281.42" r="0.69" fill="#e6a856" opacity="0.71"/><circle cx="819.65" cy="18.83" r="1.61" fill="#dae76a" opacity="0.67"/><circle cx="654.80" cy="382.60" r="1.48" fill="#e6a856" opacity="0.37"/><circle cx="998.64" cy="286.01" r="1.43" fill="#e6a856" opacity="0.62"/><circle cx="687.56" cy="403.24" r="0.94" fill="#dae76a" opacity="0.32"/><circle cx="929.98" cy="284.29" r="0.67" fill="#e6a856" opacity="0.57"/><circle cx="817.37" cy="425.70" r="0.74" fill="#e6a856" opacity="0.35"/><circle cx="610.59" cy="343.56" r="0.94" fill="#dae76a" opacity="0.76"/><circle cx="1028.15" cy="354.95" r="1.47" fill="#e6a856" opacity="0.58"/><circle cx="875.84" cy="24.06" r="1.12" fill="#e6a856" opacity="0.60"/><circle cx="1006.50" cy="375.35" r="0.98" fill="#dae76a" opacity="0.61"/><circle cx="952.07" cy="401.45" r="1.31" fill="#e6a856" opacity="0.62"/><circle cx="781.20" cy="159.46" r="1.01" fill="#e6a856" opacity="0.75"/><circle cx="931.20" cy="305.36" r="1.05" fill="#dae76a" opacity="0.21"/><circle cx="1082.40" cy="229.16" r="0.73" fill="#e6a856" opacity="0.38"/><circle cx="979.60" cy="315.06" r="1.40" fill="#e6a856" opacity="0.53"/><circle cx="979.90" cy="248.29" r="1.42" fill="#dae76a" opacity="0.74"/><circle cx="958.55" cy="393.87" r="1.16" fill="#e6a856" opacity="0.57"/><circle cx="667.08" cy="241.30" r="1.41" fill="#e6a856" opacity="0.62"/><circle cx="876.80" cy="252.16" r="0.81" fill="#dae76a" opacity="0.20"/><circle cx="944.80" cy="293.87" r="0.88" fill="#e6a856" opacity="0.27"/><circle cx="983.68" cy="192.64" r="1.26" fill="#e6a856" opacity="0.64"/><circle cx="714.00" cy="300.09" r="1.24" fill="#dae76a" opacity="0.30"/><circle cx="772.76" cy="41.74" r="1.00" fill="#e6a856" opacity="0.23"/><circle cx="917.78" cy="129.08" r="1.47" fill="#e6a856" opacity="0.58"/><circle cx="937.98" cy="366.58" r="1.02" fill="#dae76a" opacity="0.70"/><circle cx="697.34" cy="404.46" r="1.01" fill="#e6a856" opacity="0.48"/><circle cx="974.37" cy="79.83" r="1.44" fill="#e6a856" opacity="0.30"/><circle cx="972.15" cy="366.02" r="1.26" fill="#dae76a" opacity="0.34"/><circle cx="766.40" cy="142.12" r="1.52" fill="#e6a856" opacity="0.35"/><circle cx="1077.86" cy="200.34" r="0.76" fill="#e6a856" opacity="0.63"/><circle cx="679.30" cy="305.93" r="1.55" fill="#dae76a" opacity="0.53"/><circle cx="992.59" cy="271.95" r="1.34" fill="#e6a856" opacity="0.65"/><circle cx="775.18" cy="367.30" r="1.12" fill="#e6a856" opacity="0.52"/><circle cx="1032.69" cy="167.37" r="1.02" fill="#dae76a" opacity="0.26"/><circle cx="914.68" cy="354.37" r="0.91" fill="#e6a856" opacity="0.21"/><circle cx="634.86" cy="81.78" r="0.65" fill="#e6a856" opacity="0.46"/><circle cx="969.11" cy="129.18" r="1.36" fill="#dae76a" opacity="0.50"/><circle cx="981.71" cy="82.80" r="1.38" fill="#e6a856" opacity="0.35"/><circle cx="770.97" cy="287.44" r="0.79" fill="#e6a856" opacity="0.53"/><circle cx="608.61" cy="338.60" r="1.60" fill="#dae76a" opacity="0.46"/><circle cx="842.60" cy="148.45" r="1.34" fill="#e6a856" opacity="0.20"/><circle cx="626.57" cy="227.58" r="1.42" fill="#e6a856" opacity="0.61"/><circle cx="889.51" cy="320.01" r="1.47" fill="#dae76a" opacity="0.31"/><circle cx="862.55" cy="402.03" r="1.37" fill="#e6a856" opacity="0.69"/><circle cx="640.19" cy="103.16" r="0.85" fill="#e6a856" opacity="0.57"/><circle cx="744.77" cy="397.35" r="1.11" fill="#dae76a" opacity="0.71"/><circle cx="764.68" cy="321.26" r="1.29" fill="#e6a856" opacity="0.49"/><circle cx="993.18" cy="346.51" r="1.67" fill="#e6a856" opacity="0.55"/><circle cx="1043.60" cy="131.16" r="0.86" fill="#dae76a" opacity="0.60"/><circle cx="707.16" cy="82.08" r="0.84" fill="#e6a856" opacity="0.33"/><circle cx="754.66" cy="400.90" r="1.07" fill="#e6a856" opacity="0.59"/><circle cx="746.32" cy="384.51" r="1.51" fill="#dae76a" opacity="0.78"/><circle cx="984.85" cy="343.38" r="1.63" fill="#e6a856" opacity="0.60"/><circle cx="805.98" cy="251.84" r="1.69" fill="#e6a856" opacity="0.51"/><circle cx="583.83" cy="196.11" r="1.52" fill="#dae76a" opacity="0.49"/><circle cx="665.13" cy="379.25" r="0.76" fill="#e6a856" opacity="0.28"/><circle cx="594.71" cy="243.14" r="1.54" fill="#e6a856" opacity="0.71"/><circle cx="576.87" cy="243.74" r="0.99" fill="#dae76a" opacity="0.29"/><circle cx="1002.02" cy="74.83" r="1.52" fill="#e6a856" opacity="0.23"/><circle cx="832.68" cy="268.79" r="0.75" fill="#e6a856" opacity="0.76"/><circle cx="714.30" cy="238.18" r="0.89" fill="#dae76a" opacity="0.27"/><circle cx="1018.76" cy="112.89" r="1.52" fill="#e6a856" opacity="0.67"/><circle cx="775.75" cy="402.13" r="1.56" fill="#e6a856" opacity="0.41"/><circle cx="694.84" cy="43.56" r="0.84" fill="#dae76a" opacity="0.58"/><circle cx="679.10" cy="158.55" r="1.43" fill="#e6a856" opacity="0.55"/><circle cx="616.88" cy="157.34" r="1.00" fill="#e6a856" opacity="0.58"/><circle cx="609.59" cy="284.84" r="0.69" fill="#dae76a" opacity="0.70"/><circle cx="1001.33" cy="349.36" r="1.65" fill="#e6a856" opacity="0.72"/><circle cx="622.89" cy="140.42" r="1.21" fill="#e6a856" opacity="0.75"/><circle cx="569.29" cy="260.97" r="1.18" fill="#dae76a" opacity="0.40"/><circle cx="948.11" cy="42.91" r="1.43" fill="#e6a856" opacity="0.51"/><circle cx="807.75" cy="379.08" r="0.77" fill="#e6a856" opacity="0.27"/><circle cx="948.12" cy="177.27" r="1.02" fill="#dae76a" opacity="0.56"/><circle cx="586.35" cy="303.20" r="1.49" fill="#e6a856" opacity="0.77"/><circle cx="844.56" cy="277.39" r="1.43" fill="#e6a856" opacity="0.67"/><circle cx="960.91" cy="163.20" r="0.92" fill="#dae76a" opacity="0.63"/><circle cx="777.95" cy="425.13" r="1.05" fill="#e6a856" opacity="0.68"/><circle cx="785.50" cy="20.09" r="0.84" fill="#e6a856" opacity="0.58"/><circle cx="645.73" cy="157.27" r="1.26" fill="#dae76a" opacity="0.39"/><circle cx="727.39" cy="340.76" r="1.09" fill="#e6a856" opacity="0.56"/><circle cx="742.49" cy="163.99" r="1.09" fill="#e6a856" opacity="0.76"/><circle cx="895.05" cy="26.43" r="0.62" fill="#dae76a" opacity="0.79"/><circle cx="821.01" cy="214.06" r="1.03" fill="#e6a856" opacity="0.72"/><circle cx="982.96" cy="118.13" r="0.70" fill="#e6a856" opacity="0.37"/><circle cx="897.78" cy="34.13" r="1.06" fill="#dae76a" opacity="0.38"/><circle cx="1016.05" cy="351.14" r="0.84" fill="#e6a856" opacity="0.39"/><circle cx="958.68" cy="45.22" r="0.98" fill="#e6a856" opacity="0.68"/><circle cx="763.64" cy="187.34" r="1.31" fill="#dae76a" opacity="0.73"/><circle cx="827.36" cy="411.78" r="1.03" fill="#e6a856" opacity="0.25"/><circle cx="891.17" cy="74.09" r="0.83" fill="#e6a856" opacity="0.34"/><circle cx="593.56" cy="129.57" r="0.78" fill="#dae76a" opacity="0.52"/><circle cx="667.91" cy="200.66" r="1.06" fill="#e6a856" opacity="0.26"/><circle cx="639.23" cy="78.11" r="1.39" fill="#e6a856" opacity="0.54"/><circle cx="701.71" cy="56.93" r="1.04" fill="#dae76a" opacity="0.34"/><circle cx="775.87" cy="74.64" r="0.76" fill="#e6a856" opacity="0.75"/><circle cx="703.10" cy="289.37" r="0.92" fill="#e6a856" opacity="0.52"/><circle cx="1004.25" cy="186.96" r="1.35" fill="#dae76a" opacity="0.62"/><circle cx="851.27" cy="38.50" r="0.65" fill="#e6a856" opacity="0.34"/><circle cx="662.40" cy="90.04" r="0.83" fill="#e6a856" opacity="0.66"/><circle cx="580.19" cy="205.31" r="1.31" fill="#dae76a" opacity="0.73"/><circle cx="669.05" cy="346.45" r="1.24" fill="#e6a856" opacity="0.36"/><circle cx="1017.80" cy="343.55" r="1.13" fill="#e6a856" opacity="0.60"/><circle cx="731.59" cy="142.70" r="0.63" fill="#dae76a" opacity="0.62"/><circle cx="721.69" cy="173.25" r="1.34" fill="#e6a856" opacity="0.57"/><circle cx="1031.92" cy="292.52" r="0.92" fill="#e6a856" opacity="0.61"/><circle cx="840.12" cy="423.30" r="1.23" fill="#dae76a" opacity="0.40"/><circle cx="1059.34" cy="173.78" r="1.66" fill="#e6a856" opacity="0.78"/><circle cx="895.79" cy="51.91" r="1.46" fill="#e6a856" opacity="0.53"/><circle cx="923.48" cy="84.30" r="1.09" fill="#dae76a" opacity="0.35"/><circle cx="793.98" cy="422.49" r="1.08" fill="#e6a856" opacity="0.22"/><circle cx="1001.67" cy="283.62" r="1.23" fill="#e6a856" opacity="0.65"/><circle cx="895.18" cy="400.03" r="1.09" fill="#dae76a" opacity="0.63"/><circle cx="608.30" cy="333.23" r="1.19" fill="#e6a856" opacity="0.27"/><circle cx="824.44" cy="422.94" r="1.38" fill="#e6a856" opacity="0.50"/><circle cx="1007.69" cy="208.21" r="0.97" fill="#dae76a" opacity="0.70"/><circle cx="830.48" cy="149.50" r="1.31" fill="#e6a856" opacity="0.70"/><circle cx="618.94" cy="175.34" r="0.78" fill="#e6a856" opacity="0.38"/><circle cx="855.86" cy="207.91" r="1.61" fill="#dae76a" opacity="0.20"/><circle cx="1063.55" cy="208.04" r="1.53" fill="#e6a856" opacity="0.60"/><circle cx="763.57" cy="185.14" r="1.43" fill="#e6a856" opacity="0.24"/><circle cx="929.88" cy="251.92" r="0.85" fill="#dae76a" opacity="0.49"/><circle cx="706.06" cy="402.98" r="1.33" fill="#e6a856" opacity="0.53"/><circle cx="962.64" cy="177.31" r="1.10" fill="#e6a856" opacity="0.56"/><text x="48" y="56" fill="#b2ada8" font-size="13" text-anchor="start" font-weight="400">PROJECT / OPEN SOURCE</text><text x="48" y="182" font-size="74.0" fill="url(#brand)" font-weight="700">agentguard</text><text x="50" y="242.0" fill="#fdf1ee" font-size="24" text-anchor="start" font-weight="400">Inspect instructions hidden in</text><text x="50" y="275.6" fill="#fdf1ee" font-size="24" text-anchor="start" font-weight="400">dependency prose.</text><path d="M656.0 309.0L762.6 193.5L864.0 235.5L975.8 120.0" fill="none" stroke="#e6a856" stroke-width="1.5" marker-end="url(#arrow)"/><path d="M656.0 309.0L762.6 193.5L864.0 235.5L975.8 120.0" class="flow" fill="none" stroke="#f6bbac" stroke-width="2"/><circle cx="656.0" cy="309.0" r="12" fill="#f6bbac" opacity=".5" filter="url(#glow)"/><circle class="pulse" cx="656.0" cy="309.0" r="3" fill="#f6bbac"/><circle cx="762.6" cy="193.5" r="12" fill="#f6bbac" opacity=".5" filter="url(#glow)"/><circle class="pulse" cx="762.6" cy="193.5" r="3" fill="#f6bbac"/><circle cx="864.0" cy="235.5" r="12" fill="#f6bbac" opacity=".5" filter="url(#glow)"/><circle class="pulse" cx="864.0" cy="235.5" r="3" fill="#f6bbac"/><circle cx="975.8" cy="120.0" r="12" fill="#f6bbac" opacity=".5" filter="url(#glow)"/><circle class="pulse" cx="975.8" cy="120.0" r="3" fill="#f6bbac"/></svg>
