<svg xmlns="http://www.w3.org/2000/svg" width="400" height="510" viewBox="0 0 400 510" data-palette="e6a856-dae76a-f6bbac-0235c8c0c05f" role="img" aria-labelledby="hero-mobile-dark-title hero-mobile-dark-desc"><title id="hero-mobile-dark-title">agentguard</title><desc id="hero-mobile-dark-desc">Inspect instructions hidden in dependency prose.</desc><defs><linearGradient id="brand" gradientUnits="userSpaceOnUse" x2="400" y2="510"><stop stop-color="#e6a856"/><stop offset=".6" stop-color="#dae76a"/><stop offset="1" stop-color="#f6bbac"/></linearGradient><radialGradient id="halo"><stop stop-color="#e6a856" stop-opacity=".22"/><stop offset="1" stop-color="#0a0a0d" stop-opacity="0"/></radialGradient><filter id="glow"><feGaussianBlur stdDeviation="5"/></filter><pattern id="grid" width="40" height="40" patternUnits="userSpaceOnUse"><path d="M40 0H0V40" fill="none" stroke="#3a2d1d" stroke-opacity=".35" stroke-width=".6"/></pattern><marker id="arrow" viewBox="0 0 10 10" refX="8" refY="5" markerWidth="5" markerHeight="5" orient="auto"><path d="m1 1 7 4-7 4" fill="none" stroke="#e6a856" stroke-width="1.5"/></marker></defs><style>text{font-family:Arial,"Noto Sans",sans-serif}.flow{stroke-dasharray:10 110;animation:flow 6s linear infinite}.pulse{animation:pulse 5s ease-in-out infinite}.turn{transform-box:fill-box;transform-origin:center;animation:turn 36s linear infinite}@keyframes flow{to{stroke-dashoffset:-360}}@keyframes pulse{0%,100%{opacity:.45}50%{opacity:1}}@keyframes turn{to{transform:rotate(360deg)}}@media(prefers-reduced-motion:reduce){*{animation:none!important;transform:none!important}.flow{display:none}}</style><rect width="400" height="510" rx="16" fill="#0a0a0d"/><rect width="400" height="510" rx="16" fill="url(#grid)"/><ellipse cx="252.0" cy="219.29999999999998" rx="200.0" ry="357.0" fill="url(#halo)"/><circle cx="305.63" cy="230.35" r="0.86" fill="#dae76a" opacity="0.30"/><circle cx="106.19" cy="427.97" r="0.64" fill="#e6a856" opacity="0.54"/><circle cx="296.45" cy="460.62" r="0.88" fill="#e6a856" opacity="0.22"/><circle cx="423.28" cy="418.70" r="1.30" fill="#dae76a" opacity="0.37"/><circle cx="419.88" cy="319.19" r="0.94" fill="#e6a856" opacity="0.51"/><circle cx="389.67" cy="270.21" r="1.14" fill="#e6a856" opacity="0.69"/><circle cx="418.33" cy="410.12" r="0.85" fill="#dae76a" opacity="0.39"/><circle cx="315.97" cy="455.84" r="0.92" fill="#e6a856" opacity="0.56"/><circle cx="324.53" cy="361.34" r="1.55" fill="#e6a856" opacity="0.71"/><circle cx="308.04" cy="247.77" r="0.86" fill="#dae76a" opacity="0.36"/><circle cx="232.67" cy="228.13" r="0.63" fill="#e6a856" opacity="0.55"/><circle cx="168.85" cy="461.62" r="0.67" fill="#e6a856" opacity="0.22"/><circle cx="223.84" cy="385.27" r="1.41" fill="#dae76a" opacity="0.47"/><circle cx="430.39" cy="391.94" r="0.66" fill="#e6a856" opacity="0.58"/><circle cx="325.35" cy="465.84" r="0.79" fill="#e6a856" opacity="0.29"/><circle cx="158.93" cy="251.29" r="1.21" fill="#dae76a" opacity="0.23"/><circle cx="322.93" cy="469.91" r="0.77" fill="#e6a856" opacity="0.48"/><circle cx="144.82" cy="245.42" r="1.24" fill="#e6a856" opacity="0.26"/><circle cx="401.97" cy="303.62" r="0.74" fill="#dae76a" opacity="0.52"/><circle cx="202.83" cy="361.08" r="1.22" fill="#e6a856" opacity="0.73"/><circle cx="97.74" cy="391.14" r="0.89" fill="#e6a856" opacity="0.78"/><circle cx="408.81" cy="321.70" r="0.97" fill="#dae76a" opacity="0.54"/><circle cx="339.78" cy="477.98" r="0.76" fill="#e6a856" opacity="0.50"/><circle cx="381.75" cy="262.29" r="1.47" fill="#e6a856" opacity="0.40"/><circle cx="202.75" cy="408.91" r="0.66" fill="#dae76a" opacity="0.53"/><circle cx="321.91" cy="402.93" r="0.86" fill="#e6a856" opacity="0.28"/><circle cx="286.80" cy="356.90" r="1.45" fill="#e6a856" opacity="0.34"/><circle cx="115.38" cy="409.54" r="0.86" fill="#dae76a" opacity="0.53"/><circle cx="272.07" cy="223.16" r="1.49" fill="#e6a856" opacity="0.80"/><circle cx="120.48" cy="264.09" r="1.06" fill="#e6a856" opacity="0.51"/><circle cx="171.21" cy="452.87" r="1.59" fill="#dae76a" opacity="0.50"/><circle cx="62.56" cy="384.87" r="0.89" fill="#e6a856" opacity="0.37"/><circle cx="275.35" cy="284.06" r="1.14" fill="#e6a856" opacity="0.35"/><circle cx="242.55" cy="257.13" r="1.42" fill="#dae76a" opacity="0.71"/><circle cx="113.44" cy="375.80" r="0.76" fill="#e6a856" opacity="0.65"/><circle cx="189.21" cy="246.29" r="1.54" fill="#e6a856" opacity="0.47"/><circle cx="95.09" cy="366.55" r="1.67" fill="#dae76a" opacity="0.63"/><circle cx="119.28" cy="450.71" r="0.94" fill="#e6a856" opacity="0.43"/><circle cx="408.37" cy="286.76" r="1.48" fill="#e6a856" opacity="0.63"/><circle cx="157.39" cy="280.38" r="1.19" fill="#dae76a" opacity="0.55"/><circle cx="266.65" cy="415.08" r="1.04" fill="#e6a856" opacity="0.67"/><circle cx="100.71" cy="447.88" r="0.83" fill="#e6a856" opacity="0.23"/><circle cx="255.79" cy="380.94" r="1.49" fill="#dae76a" opacity="0.26"/><circle cx="106.46" cy="353.15" r="0.71" fill="#e6a856" opacity="0.39"/><circle cx="408.89" cy="378.03" r="0.84" fill="#e6a856" opacity="0.45"/><circle cx="123.96" cy="259.31" r="1.11" fill="#dae76a" opacity="0.25"/><circle cx="338.82" cy="474.51" r="1.13" fill="#e6a856" opacity="0.55"/><circle cx="410.73" cy="290.13" r="0.94" fill="#e6a856" opacity="0.42"/><circle cx="392.20" cy="300.29" r="1.46" fill="#dae76a" opacity="0.28"/><circle cx="296.44" cy="341.51" r="0.91" fill="#e6a856" opacity="0.36"/><circle cx="318.03" cy="279.56" r="1.06" fill="#e6a856" opacity="0.62"/><circle cx="140.87" cy="473.73" r="1.35" fill="#dae76a" opacity="0.57"/><circle cx="148.93" cy="319.00" r="0.78" fill="#e6a856" opacity="0.48"/><circle cx="127.73" cy="446.08" r="1.47" fill="#e6a856" opacity="0.46"/><circle cx="248.75" cy="484.21" r="1.52" fill="#dae76a" opacity="0.50"/><circle cx="271.64" cy="411.45" r="1.68" fill="#e6a856" opacity="0.32"/><circle cx="254.07" cy="454.03" r="1.33" fill="#e6a856" opacity="0.23"/><circle cx="378.36" cy="383.80" r="1.06" fill="#dae76a" opacity="0.80"/><circle cx="258.75" cy="222.32" r="0.76" fill="#e6a856" opacity="0.58"/><circle cx="188.08" cy="358.45" r="1.58" fill="#e6a856" opacity="0.65"/><circle cx="84.63" cy="409.20" r="1.30" fill="#dae76a" opacity="0.24"/><circle cx="280.43" cy="311.14" r="1.61" fill="#e6a856" opacity="0.33"/><circle cx="377.77" cy="431.72" r="1.50" fill="#e6a856" opacity="0.48"/><circle cx="280.48" cy="237.18" r="0.74" fill="#dae76a" opacity="0.37"/><circle cx="339.16" cy="260.96" r="1.16" fill="#e6a856" opacity="0.44"/><circle cx="307.82" cy="393.03" r="0.97" fill="#e6a856" opacity="0.73"/><circle cx="211.56" cy="268.28" r="1.04" fill="#dae76a" opacity="0.23"/><circle cx="374.27" cy="256.10" r="0.83" fill="#e6a856" opacity="0.79"/><circle cx="329.88" cy="298.85" r="0.79" fill="#e6a856" opacity="0.49"/><circle cx="164.71" cy="237.91" r="0.63" fill="#dae76a" opacity="0.64"/><circle cx="211.62" cy="276.30" r="1.09" fill="#e6a856" opacity="0.50"/><circle cx="325.88" cy="389.13" r="0.67" fill="#e6a856" opacity="0.73"/><circle cx="277.12" cy="372.22" r="1.44" fill="#dae76a" opacity="0.57"/><circle cx="141.10" cy="437.00" r="1.30" fill="#e6a856" opacity="0.67"/><circle cx="306.37" cy="490.69" r="1.21" fill="#e6a856" opacity="0.54"/><circle cx="88.52" cy="398.00" r="1.04" fill="#dae76a" opacity="0.21"/><circle cx="392.50" cy="409.94" r="1.42" fill="#e6a856" opacity="0.32"/><circle cx="140.24" cy="315.89" r="1.39" fill="#e6a856" opacity="0.32"/><circle cx="427.55" cy="381.88" r="1.62" fill="#dae76a" opacity="0.28"/><circle cx="217.22" cy="224.13" r="0.97" fill="#e6a856" opacity="0.32"/><circle cx="148.64" cy="479.66" r="1.24" fill="#e6a856" opacity="0.40"/><circle cx="176.89" cy="251.82" r="1.50" fill="#dae76a" opacity="0.25"/><circle cx="163.45" cy="432.30" r="1.63" fill="#e6a856" opacity="0.56"/><circle cx="214.12" cy="259.80" r="1.51" fill="#e6a856" opacity="0.32"/><circle cx="71.85" cy="367.33" r="0.97" fill="#dae76a" opacity="0.51"/><circle cx="203.73" cy="331.03" r="0.75" fill="#e6a856" opacity="0.48"/><circle cx="267.37" cy="223.51" r="0.97" fill="#e6a856" opacity="0.53"/><circle cx="400.73" cy="432.45" r="0.69" fill="#dae76a" opacity="0.72"/><circle cx="365.09" cy="392.88" r="1.24" fill="#e6a856" opacity="0.71"/><circle cx="216.28" cy="225.37" r="0.92" fill="#e6a856" opacity="0.57"/><circle cx="228.91" cy="415.47" r="1.68" fill="#dae76a" opacity="0.39"/><circle cx="361.68" cy="350.80" r="1.21" fill="#e6a856" opacity="0.78"/><circle cx="78.92" cy="301.60" r="1.27" fill="#e6a856" opacity="0.58"/><circle cx="375.68" cy="288.78" r="0.81" fill="#dae76a" opacity="0.29"/><circle cx="146.01" cy="300.41" r="1.58" fill="#e6a856" opacity="0.69"/><circle cx="363.92" cy="461.84" r="1.57" fill="#e6a856" opacity="0.66"/><circle cx="405.31" cy="293.25" r="0.98" fill="#dae76a" opacity="0.41"/><circle cx="127.27" cy="306.63" r="0.66" fill="#e6a856" opacity="0.43"/><circle cx="191.44" cy="253.15" r="1.00" fill="#e6a856" opacity="0.26"/><circle cx="317.00" cy="492.97" r="1.20" fill="#dae76a" opacity="0.63"/><circle cx="320.54" cy="387.51" r="1.13" fill="#e6a856" opacity="0.36"/><circle cx="209.71" cy="360.29" r="0.90" fill="#e6a856" opacity="0.65"/><circle cx="371.67" cy="291.35" r="1.51" fill="#dae76a" opacity="0.65"/><circle cx="244.98" cy="223.66" r="0.82" fill="#e6a856" opacity="0.77"/><circle cx="306.80" cy="265.10" r="1.37" fill="#e6a856" opacity="0.60"/><circle cx="302.24" cy="229.67" r="1.41" fill="#dae76a" opacity="0.35"/><circle cx="327.50" cy="256.66" r="0.71" fill="#e6a856" opacity="0.63"/><circle cx="91.10" cy="437.83" r="1.30" fill="#e6a856" opacity="0.75"/><circle cx="164.45" cy="242.69" r="1.07" fill="#dae76a" opacity="0.42"/><circle cx="165.74" cy="421.30" r="1.06" fill="#e6a856" opacity="0.80"/><circle cx="72.51" cy="406.17" r="0.73" fill="#e6a856" opacity="0.73"/><circle cx="152.56" cy="479.63" r="1.39" fill="#dae76a" opacity="0.53"/><circle cx="315.24" cy="318.04" r="1.37" fill="#e6a856" opacity="0.45"/><circle cx="168.39" cy="488.08" r="1.23" fill="#e6a856" opacity="0.49"/><circle cx="388.39" cy="298.16" r="0.68" fill="#dae76a" opacity="0.49"/><circle cx="367.77" cy="469.32" r="1.49" fill="#e6a856" opacity="0.31"/><circle cx="164.33" cy="377.92" r="1.12" fill="#e6a856" opacity="0.76"/><circle cx="249.92" cy="439.61" r="1.03" fill="#dae76a" opacity="0.76"/><circle cx="135.27" cy="447.93" r="1.02" fill="#e6a856" opacity="0.71"/><circle cx="353.53" cy="403.61" r="0.75" fill="#e6a856" opacity="0.34"/><circle cx="169.90" cy="235.86" r="1.37" fill="#dae76a" opacity="0.38"/><circle cx="230.34" cy="308.32" r="1.27" fill="#e6a856" opacity="0.34"/><circle cx="145.18" cy="461.70" r="1.18" fill="#e6a856" opacity="0.50"/><circle cx="272.11" cy="366.56" r="1.43" fill="#dae76a" opacity="0.62"/><circle cx="394.06" cy="272.75" r="1.33" fill="#e6a856" opacity="0.35"/><circle cx="76.37" cy="369.71" r="0.93" fill="#e6a856" opacity="0.49"/><circle cx="116.40" cy="403.80" r="0.80" fill="#dae76a" opacity="0.68"/><circle cx="157.69" cy="316.21" r="1.30" fill="#e6a856" opacity="0.64"/><circle cx="153.13" cy="291.62" r="1.11" fill="#e6a856" opacity="0.29"/><circle cx="177.69" cy="235.90" r="1.68" fill="#dae76a" opacity="0.73"/><circle cx="120.27" cy="381.74" r="1.13" fill="#e6a856" opacity="0.67"/><circle cx="136.53" cy="420.28" r="0.78" fill="#e6a856" opacity="0.66"/><circle cx="398.86" cy="431.16" r="1.64" fill="#dae76a" opacity="0.35"/><circle cx="106.55" cy="282.17" r="0.71" fill="#e6a856" opacity="0.51"/><circle cx="259.78" cy="378.30" r="1.43" fill="#e6a856" opacity="0.26"/><circle cx="88.42" cy="394.81" r="1.24" fill="#dae76a" opacity="0.34"/><circle cx="297.23" cy="425.41" r="1.53" fill="#e6a856" opacity="0.47"/><circle cx="337.39" cy="373.57" r="0.95" fill="#e6a856" opacity="0.56"/><circle cx="397.50" cy="419.20" r="1.32" fill="#dae76a" opacity="0.59"/><circle cx="312.63" cy="300.26" r="0.79" fill="#e6a856" opacity="0.65"/><circle cx="358.03" cy="247.83" r="1.52" fill="#e6a856" opacity="0.27"/><circle cx="439.40" cy="367.68" r="1.25" fill="#dae76a" opacity="0.27"/><circle cx="187.56" cy="248.55" r="1.52" fill="#e6a856" opacity="0.58"/><circle cx="187.84" cy="486.96" r="1.03" fill="#e6a856" opacity="0.47"/><circle cx="304.68" cy="239.41" r="1.62" fill="#dae76a" opacity="0.57"/><circle cx="328.86" cy="356.21" r="1.60" fill="#e6a856" opacity="0.55"/><circle cx="434.34" cy="353.98" r="1.08" fill="#e6a856" opacity="0.44"/><circle cx="347.19" cy="245.13" r="1.53" fill="#dae76a" opacity="0.53"/><circle cx="296.32" cy="239.91" r="0.67" fill="#e6a856" opacity="0.38"/><circle cx="437.07" cy="337.69" r="1.23" fill="#e6a856" opacity="0.46"/><circle cx="75.03" cy="352.60" r="0.77" fill="#dae76a" opacity="0.76"/><circle cx="144.10" cy="319.92" r="1.60" fill="#e6a856" opacity="0.71"/><circle cx="327.91" cy="480.58" r="0.98" fill="#e6a856" opacity="0.31"/><circle cx="251.60" cy="420.86" r="0.76" fill="#dae76a" opacity="0.79"/><circle cx="298.05" cy="460.53" r="1.58" fill="#e6a856" opacity="0.50"/><circle cx="226.51" cy="361.61" r="1.15" fill="#e6a856" opacity="0.66"/><circle cx="302.87" cy="481.97" r="1.67" fill="#dae76a" opacity="0.51"/><circle cx="147.26" cy="246.38" r="1.33" fill="#e6a856" opacity="0.68"/><circle cx="183.96" cy="339.94" r="0.93" fill="#e6a856" opacity="0.32"/><circle cx="69.56" cy="365.50" r="1.11" fill="#dae76a" opacity="0.26"/><circle cx="196.17" cy="457.27" r="1.45" fill="#e6a856" opacity="0.69"/><circle cx="83.99" cy="348.40" r="0.66" fill="#e6a856" opacity="0.40"/><circle cx="302.87" cy="244.57" r="0.88" fill="#dae76a" opacity="0.74"/><circle cx="133.63" cy="470.62" r="0.85" fill="#e6a856" opacity="0.45"/><circle cx="341.60" cy="278.04" r="0.92" fill="#e6a856" opacity="0.24"/><circle cx="222.18" cy="472.06" r="1.40" fill="#dae76a" opacity="0.62"/><circle cx="272.90" cy="229.68" r="0.89" fill="#e6a856" opacity="0.45"/><circle cx="320.86" cy="237.96" r="1.09" fill="#e6a856" opacity="0.69"/><circle cx="184.40" cy="418.93" r="0.86" fill="#dae76a" opacity="0.52"/><circle cx="192.95" cy="228.49" r="1.40" fill="#e6a856" opacity="0.41"/><circle cx="297.96" cy="314.47" r="0.66" fill="#e6a856" opacity="0.35"/><circle cx="106.44" cy="388.74" r="1.27" fill="#dae76a" opacity="0.34"/><circle cx="366.75" cy="400.38" r="0.71" fill="#e6a856" opacity="0.66"/><circle cx="424.13" cy="370.99" r="0.65" fill="#e6a856" opacity="0.50"/><circle cx="364.90" cy="473.47" r="0.67" fill="#dae76a" opacity="0.37"/><circle cx="103.06" cy="350.31" r="0.98" fill="#e6a856" opacity="0.21"/><circle cx="428.45" cy="401.50" r="0.67" fill="#e6a856" opacity="0.47"/><circle cx="105.57" cy="440.06" r="1.31" fill="#dae76a" opacity="0.41"/><circle cx="211.45" cy="232.25" r="1.60" fill="#e6a856" opacity="0.36"/><circle cx="304.13" cy="486.33" r="1.25" fill="#e6a856" opacity="0.43"/><circle cx="164.51" cy="407.34" r="0.63" fill="#dae76a" opacity="0.77"/><circle cx="104.30" cy="278.21" r="1.14" fill="#e6a856" opacity="0.29"/><circle cx="227.34" cy="359.55" r="1.29" fill="#e6a856" opacity="0.48"/><circle cx="341.73" cy="440.96" r="0.75" fill="#dae76a" opacity="0.36"/><circle cx="425.19" cy="307.80" r="1.29" fill="#e6a856" opacity="0.59"/><circle cx="156.18" cy="472.16" r="1.40" fill="#e6a856" opacity="0.42"/><circle cx="160.10" cy="333.27" r="1.63" fill="#dae76a" opacity="0.78"/><circle cx="218.78" cy="226.04" r="0.96" fill="#e6a856" opacity="0.21"/><circle cx="329.69" cy="479.55" r="1.48" fill="#e6a856" opacity="0.42"/><circle cx="417.88" cy="385.70" r="0.95" fill="#dae76a" opacity="0.73"/><circle cx="144.06" cy="349.59" r="1.27" fill="#e6a856" opacity="0.46"/><circle cx="172.24" cy="270.90" r="1.27" fill="#e6a856" opacity="0.40"/><circle cx="126.94" cy="468.18" r="1.55" fill="#dae76a" opacity="0.74"/><circle cx="151.55" cy="243.56" r="1.00" fill="#e6a856" opacity="0.69"/><circle cx="310.83" cy="352.79" r="1.25" fill="#e6a856" opacity="0.31"/><circle cx="170.32" cy="332.52" r="1.62" fill="#dae76a" opacity="0.71"/><circle cx="175.82" cy="280.88" r="1.55" fill="#e6a856" opacity="0.76"/><circle cx="237.42" cy="285.25" r="0.97" fill="#e6a856" opacity="0.59"/><circle cx="427.25" cy="385.34" r="0.71" fill="#dae76a" opacity="0.52"/><circle cx="196.77" cy="434.08" r="0.94" fill="#e6a856" opacity="0.50"/><circle cx="412.32" cy="290.06" r="1.40" fill="#e6a856" opacity="0.48"/><circle cx="135.81" cy="473.48" r="0.96" fill="#dae76a" opacity="0.31"/><circle cx="270.73" cy="345.60" r="0.70" fill="#e6a856" opacity="0.27"/><circle cx="63.70" cy="386.81" r="1.65" fill="#e6a856" opacity="0.49"/><circle cx="229.24" cy="244.52" r="1.14" fill="#dae76a" opacity="0.66"/><circle cx="174.29" cy="393.88" r="1.51" fill="#e6a856" opacity="0.72"/><circle cx="394.15" cy="403.68" r="1.14" fill="#e6a856" opacity="0.25"/><circle cx="232.06" cy="399.06" r="1.33" fill="#dae76a" opacity="0.44"/><circle cx="222.31" cy="438.10" r="0.76" fill="#e6a856" opacity="0.35"/><circle cx="268.35" cy="351.39" r="0.83" fill="#e6a856" opacity="0.75"/><circle cx="383.86" cy="450.41" r="1.62" fill="#dae76a" opacity="0.26"/><circle cx="92.15" cy="393.99" r="1.34" fill="#e6a856" opacity="0.78"/><circle cx="406.80" cy="434.96" r="0.64" fill="#e6a856" opacity="0.69"/><circle cx="133.79" cy="289.45" r="1.31" fill="#dae76a" opacity="0.55"/><circle cx="209.67" cy="401.68" r="0.83" fill="#e6a856" opacity="0.39"/><circle cx="408.09" cy="439.29" r="1.38" fill="#e6a856" opacity="0.72"/><circle cx="372.89" cy="454.08" r="1.24" fill="#dae76a" opacity="0.78"/><circle cx="154.70" cy="470.64" r="1.12" fill="#e6a856" opacity="0.67"/><circle cx="383.27" cy="428.86" r="1.19" fill="#e6a856" opacity="0.53"/><circle cx="73.42" cy="393.41" r="1.01" fill="#dae76a" opacity="0.42"/><circle cx="419.54" cy="300.14" r="0.79" fill="#e6a856" opacity="0.47"/><circle cx="86.57" cy="432.44" r="1.18" fill="#e6a856" opacity="0.55"/><circle cx="297.42" cy="412.85" r="1.14" fill="#dae76a" opacity="0.51"/><circle cx="300.10" cy="227.02" r="0.71" fill="#e6a856" opacity="0.73"/><circle cx="388.27" cy="426.06" r="1.42" fill="#e6a856" opacity="0.75"/><circle cx="426.73" cy="409.42" r="0.99" fill="#dae76a" opacity="0.64"/><circle cx="285.60" cy="423.27" r="0.73" fill="#e6a856" opacity="0.59"/><circle cx="69.26" cy="398.14" r="1.09" fill="#e6a856" opacity="0.41"/><circle cx="127.33" cy="360.74" r="1.43" fill="#dae76a" opacity="0.77"/><circle cx="257.72" cy="475.89" r="1.51" fill="#e6a856" opacity="0.78"/><circle cx="135.58" cy="418.47" r="1.12" fill="#e6a856" opacity="0.63"/><circle cx="262.36" cy="298.70" r="1.66" fill="#dae76a" opacity="0.77"/><circle cx="398.56" cy="404.81" r="0.81" fill="#e6a856" opacity="0.35"/><circle cx="326.35" cy="388.89" r="0.81" fill="#e6a856" opacity="0.27"/><circle cx="158.51" cy="242.98" r="0.95" fill="#dae76a" opacity="0.64"/><circle cx="174.68" cy="475.41" r="0.77" fill="#e6a856" opacity="0.47"/><circle cx="243.30" cy="399.61" r="0.69" fill="#e6a856" opacity="0.71"/><circle cx="246.09" cy="224.55" r="1.61" fill="#dae76a" opacity="0.67"/><circle cx="125.63" cy="467.07" r="1.48" fill="#e6a856" opacity="0.37"/><circle cx="376.89" cy="402.67" r="1.43" fill="#e6a856" opacity="0.62"/><circle cx="149.56" cy="480.83" r="0.94" fill="#dae76a" opacity="0.32"/><circle cx="326.72" cy="401.52" r="0.67" fill="#e6a856" opacity="0.57"/><circle cx="244.43" cy="495.80" r="0.74" fill="#e6a856" opacity="0.35"/><circle cx="93.32" cy="441.04" r="0.94" fill="#dae76a" opacity="0.76"/><circle cx="398.45" cy="448.63" r="1.47" fill="#e6a856" opacity="0.58"/><circle cx="287.15" cy="228.04" r="1.12" fill="#e6a856" opacity="0.60"/><circle cx="382.63" cy="462.23" r="0.98" fill="#dae76a" opacity="0.61"/><circle cx="342.86" cy="479.64" r="1.31" fill="#e6a856" opacity="0.62"/><circle cx="217.99" cy="318.30" r="1.01" fill="#e6a856" opacity="0.75"/><circle cx="327.61" cy="415.57" r="1.05" fill="#dae76a" opacity="0.21"/><circle cx="438.10" cy="364.77" r="0.73" fill="#e6a856" opacity="0.38"/><circle cx="362.98" cy="422.04" r="1.40" fill="#e6a856" opacity="0.53"/><circle cx="363.19" cy="377.53" r="1.42" fill="#dae76a" opacity="0.74"/><circle cx="347.60" cy="474.58" r="1.16" fill="#e6a856" opacity="0.57"/><circle cx="134.59" cy="372.87" r="1.41" fill="#e6a856" opacity="0.62"/><circle cx="287.86" cy="380.11" r="0.81" fill="#dae76a" opacity="0.20"/><circle cx="337.55" cy="407.91" r="0.88" fill="#e6a856" opacity="0.27"/><circle cx="365.96" cy="340.42" r="1.26" fill="#e6a856" opacity="0.64"/><circle cx="168.88" cy="412.06" r="1.24" fill="#dae76a" opacity="0.30"/><circle cx="211.82" cy="239.83" r="1.00" fill="#e6a856" opacity="0.23"/><circle cx="317.80" cy="298.06" r="1.47" fill="#e6a856" opacity="0.58"/><circle cx="332.56" cy="456.39" r="1.02" fill="#dae76a" opacity="0.70"/><circle cx="156.71" cy="481.64" r="1.01" fill="#e6a856" opacity="0.48"/><circle cx="359.16" cy="265.22" r="1.44" fill="#e6a856" opacity="0.30"/><circle cx="357.53" cy="456.01" r="1.26" fill="#dae76a" opacity="0.34"/><circle cx="207.18" cy="306.75" r="1.52" fill="#e6a856" opacity="0.35"/><circle cx="434.79" cy="345.56" r="0.76" fill="#e6a856" opacity="0.63"/><circle cx="143.53" cy="415.95" r="1.55" fill="#dae76a" opacity="0.53"/><circle cx="372.47" cy="393.30" r="1.34" fill="#e6a856" opacity="0.65"/><circle cx="213.59" cy="456.87" r="1.12" fill="#e6a856" opacity="0.52"/><circle cx="401.78" cy="323.58" r="1.02" fill="#dae76a" opacity="0.26"/><circle cx="315.54" cy="448.24" r="0.91" fill="#e6a856" opacity="0.21"/><circle cx="111.05" cy="266.52" r="0.65" fill="#e6a856" opacity="0.46"/><circle cx="355.31" cy="298.12" r="1.36" fill="#dae76a" opacity="0.50"/><circle cx="364.52" cy="267.20" r="1.38" fill="#e6a856" opacity="0.35"/><circle cx="210.52" cy="403.63" r="0.79" fill="#e6a856" opacity="0.53"/><circle cx="91.87" cy="437.73" r="1.60" fill="#dae76a" opacity="0.46"/><circle cx="262.86" cy="310.97" r="1.34" fill="#e6a856" opacity="0.20"/><circle cx="104.99" cy="363.72" r="1.42" fill="#e6a856" opacity="0.61"/><circle cx="297.14" cy="425.34" r="1.47" fill="#dae76a" opacity="0.31"/><circle cx="277.44" cy="480.02" r="1.37" fill="#e6a856" opacity="0.69"/><circle cx="114.94" cy="280.78" r="0.85" fill="#e6a856" opacity="0.57"/><circle cx="191.37" cy="476.90" r="1.11" fill="#dae76a" opacity="0.71"/><circle cx="205.92" cy="426.17" r="1.29" fill="#e6a856" opacity="0.49"/><circle cx="372.90" cy="443.01" r="1.67" fill="#e6a856" opacity="0.55"/><circle cx="409.75" cy="299.44" r="0.86" fill="#dae76a" opacity="0.60"/><circle cx="163.89" cy="266.72" r="0.84" fill="#e6a856" opacity="0.33"/><circle cx="198.59" cy="479.27" r="1.07" fill="#e6a856" opacity="0.59"/><circle cx="192.50" cy="468.34" r="1.51" fill="#dae76a" opacity="0.78"/><circle cx="366.82" cy="440.92" r="1.63" fill="#e6a856" opacity="0.60"/><circle cx="236.10" cy="379.90" r="1.69" fill="#e6a856" opacity="0.51"/><circle cx="73.76" cy="342.74" r="1.52" fill="#dae76a" opacity="0.49"/><circle cx="133.17" cy="464.83" r="0.76" fill="#e6a856" opacity="0.28"/><circle cx="81.71" cy="374.09" r="1.54" fill="#e6a856" opacity="0.71"/><circle cx="68.67" cy="374.49" r="0.99" fill="#dae76a" opacity="0.29"/><circle cx="379.36" cy="261.89" r="1.52" fill="#e6a856" opacity="0.23"/><circle cx="255.61" cy="391.19" r="0.75" fill="#e6a856" opacity="0.76"/><circle cx="169.11" cy="370.79" r="0.89" fill="#dae76a" opacity="0.27"/><circle cx="391.59" cy="287.26" r="1.52" fill="#e6a856" opacity="0.67"/><circle cx="214.01" cy="480.09" r="1.56" fill="#e6a856" opacity="0.41"/><circle cx="154.88" cy="241.04" r="0.84" fill="#dae76a" opacity="0.58"/><circle cx="143.38" cy="317.70" r="1.43" fill="#e6a856" opacity="0.55"/><circle cx="97.92" cy="316.90" r="1.00" fill="#e6a856" opacity="0.58"/><circle cx="92.59" cy="401.90" r="0.69" fill="#dae76a" opacity="0.70"/><circle cx="378.86" cy="444.91" r="1.65" fill="#e6a856" opacity="0.72"/><circle cx="102.31" cy="305.62" r="1.21" fill="#e6a856" opacity="0.75"/><circle cx="63.13" cy="385.98" r="1.18" fill="#dae76a" opacity="0.40"/><circle cx="339.96" cy="240.61" r="1.43" fill="#e6a856" opacity="0.51"/><circle cx="237.40" cy="464.72" r="0.77" fill="#e6a856" opacity="0.27"/><circle cx="339.97" cy="330.18" r="1.02" fill="#dae76a" opacity="0.56"/><circle cx="75.60" cy="414.13" r="1.49" fill="#e6a856" opacity="0.77"/><circle cx="264.29" cy="396.93" r="1.43" fill="#e6a856" opacity="0.67"/><circle cx="349.32" cy="320.80" r="0.92" fill="#dae76a" opacity="0.63"/><circle cx="215.62" cy="495.42" r="1.05" fill="#e6a856" opacity="0.68"/><circle cx="221.13" cy="225.40" r="0.84" fill="#e6a856" opacity="0.58"/><circle cx="118.99" cy="316.85" r="1.26" fill="#dae76a" opacity="0.39"/><circle cx="178.67" cy="439.17" r="1.09" fill="#e6a856" opacity="0.56"/><circle cx="189.71" cy="321.33" r="1.09" fill="#e6a856" opacity="0.76"/><circle cx="301.19" cy="229.62" r="0.62" fill="#dae76a" opacity="0.79"/><circle cx="247.09" cy="354.70" r="1.03" fill="#e6a856" opacity="0.72"/><circle cx="365.43" cy="290.75" r="0.70" fill="#e6a856" opacity="0.37"/><circle cx="303.18" cy="234.76" r="1.06" fill="#dae76a" opacity="0.38"/><circle cx="389.62" cy="446.09" r="0.84" fill="#e6a856" opacity="0.39"/><circle cx="347.69" cy="242.14" r="0.98" fill="#e6a856" opacity="0.68"/><circle cx="205.16" cy="336.89" r="1.31" fill="#dae76a" opacity="0.73"/><circle cx="251.72" cy="486.52" r="1.03" fill="#e6a856" opacity="0.25"/><circle cx="298.36" cy="261.40" r="0.83" fill="#e6a856" opacity="0.34"/><circle cx="80.87" cy="298.38" r="0.78" fill="#dae76a" opacity="0.52"/><circle cx="135.20" cy="345.77" r="1.06" fill="#e6a856" opacity="0.26"/><circle cx="114.24" cy="264.07" r="1.39" fill="#e6a856" opacity="0.54"/><circle cx="159.91" cy="249.95" r="1.04" fill="#dae76a" opacity="0.34"/><circle cx="214.09" cy="261.76" r="0.76" fill="#e6a856" opacity="0.75"/><circle cx="160.92" cy="404.91" r="0.92" fill="#e6a856" opacity="0.52"/><circle cx="380.99" cy="336.64" r="1.35" fill="#dae76a" opacity="0.62"/><circle cx="269.20" cy="237.66" r="0.65" fill="#e6a856" opacity="0.34"/><circle cx="131.18" cy="272.03" r="0.83" fill="#e6a856" opacity="0.66"/><circle cx="71.10" cy="348.87" r="1.31" fill="#dae76a" opacity="0.73"/><circle cx="136.04" cy="442.97" r="1.24" fill="#e6a856" opacity="0.36"/><circle cx="390.89" cy="441.03" r="1.13" fill="#e6a856" opacity="0.60"/><circle cx="181.74" cy="307.13" r="0.63" fill="#dae76a" opacity="0.62"/><circle cx="174.50" cy="327.50" r="1.34" fill="#e6a856" opacity="0.57"/><circle cx="401.21" cy="407.01" r="0.92" fill="#e6a856" opacity="0.61"/><circle cx="261.05" cy="494.20" r="1.23" fill="#dae76a" opacity="0.40"/><circle cx="421.25" cy="327.86" r="1.66" fill="#e6a856" opacity="0.78"/><circle cx="301.73" cy="246.60" r="1.46" fill="#e6a856" opacity="0.53"/><circle cx="321.97" cy="268.20" r="1.09" fill="#dae76a" opacity="0.35"/><circle cx="227.33" cy="493.66" r="1.08" fill="#e6a856" opacity="0.22"/><circle cx="379.10" cy="401.08" r="1.23" fill="#e6a856" opacity="0.65"/><circle cx="301.28" cy="478.69" r="1.09" fill="#dae76a" opacity="0.63"/><circle cx="91.64" cy="434.16" r="1.19" fill="#e6a856" opacity="0.27"/><circle cx="249.59" cy="493.96" r="1.38" fill="#e6a856" opacity="0.50"/><circle cx="383.50" cy="350.80" r="0.97" fill="#dae76a" opacity="0.70"/><circle cx="254.00" cy="311.67" r="1.31" fill="#e6a856" opacity="0.70"/><circle cx="99.42" cy="328.90" r="0.78" fill="#e6a856" opacity="0.38"/><circle cx="272.55" cy="350.61" r="1.61" fill="#dae76a" opacity="0.20"/><circle cx="424.32" cy="350.69" r="1.53" fill="#e6a856" opacity="0.60"/><circle cx="205.11" cy="335.42" r="1.43" fill="#e6a856" opacity="0.24"/><circle cx="326.64" cy="379.95" r="0.85" fill="#dae76a" opacity="0.49"/><circle cx="163.08" cy="480.65" r="1.33" fill="#e6a856" opacity="0.53"/><circle cx="350.58" cy="330.20" r="1.10" fill="#e6a856" opacity="0.56"/><text x="28" y="50" fill="#b2ada8" font-size="13" text-anchor="start" font-weight="400">PROJECT / OPEN SOURCE</text><text x="28" y="117" font-size="46.0" fill="url(#brand)" font-weight="700">agentguard</text><text x="28" y="163.0" fill="#fdf1ee" font-size="21" text-anchor="start" font-weight="400">Inspect instructions hidden</text><text x="28" y="192.4" fill="#fdf1ee" font-size="21" text-anchor="start" font-weight="400">in dependency prose.</text><path d="M126.5 418.0L204.4 341.0L278.5 369.0L360.2 292.0" fill="none" stroke="#e6a856" stroke-width="1.5" marker-end="url(#arrow)"/><path d="M126.5 418.0L204.4 341.0L278.5 369.0L360.2 292.0" class="flow" fill="none" stroke="#f6bbac" stroke-width="2"/><circle cx="126.5" cy="418.0" r="12" fill="#f6bbac" opacity=".5" filter="url(#glow)"/><circle class="pulse" cx="126.5" cy="418.0" r="3" fill="#f6bbac"/><circle cx="204.4" cy="341.0" r="12" fill="#f6bbac" opacity=".5" filter="url(#glow)"/><circle class="pulse" cx="204.4" cy="341.0" r="3" fill="#f6bbac"/><circle cx="278.5" cy="369.0" r="12" fill="#f6bbac" opacity=".5" filter="url(#glow)"/><circle class="pulse" cx="278.5" cy="369.0" r="3" fill="#f6bbac"/><circle cx="360.2" cy="292.0" r="12" fill="#f6bbac" opacity=".5" filter="url(#glow)"/><circle class="pulse" cx="360.2" cy="292.0" r="3" fill="#f6bbac"/></svg>
